<svg id="Capa_1" data-name="Capa 1" xmlns="http://www.w3.org/2000/svg" viewBox="0 0 2178.71 704.89"><defs><style>.cls-1{fill:#be1622;}.cls-2{fill:#fff;}</style></defs><title>Foxtrot logo blanco full design2</title><path class="cls-1" d="M1175.45,633.12l3.21-3.25q11.11,5.57,16.86,7.22,3.62-3.66.67-8.15-24.35-18.35-30.22-29.2,5.44-7.37,4.09-11.6l-23.72-20.83q-17.13-23.29-26.06-25.93l-31.08-27.07-31-29.7q-34.47-45.93-85.85-90.59l.75-.24a100.93,100.93,0,0,1-11.63-13.72c.9-1.17,1.89-2.32,2.83-3.48.74-.09,1.48-.22,2.22-.3l7.7-10.76c3.51-3.58,7.21-7.12,11.2-10.6-1.31.21-2.65.32-4,.51l15.9-22.21a7.13,7.13,0,0,0,2-2.78q.52-2.22,33.7-31.92l31.75-40.89,38.72-38.9-11.58-.62,4.14,0a41.29,41.29,0,0,1,7.44.65q40-38.41,40.56-46.67l.13-.87-3.51.56-5.51,2.6-3.51.56q17.16-24.14,17.66-27.64,19.68-14.07,20.41-23,1.24-14.75,42-53.78,36.39-23.81,53-41c.16-1.17-.92-1.57-3.26-1.19l-1.75.28q-12,5.13-18.36,11.5-77.64,47.12-78.42,57.07l-7,1.13c2.79-5.58,4.22-9.52,4.26-11.8a32.94,32.94,0,0,0-14.1,5.68q-19.55,22.81-35.13,33-15,3.27-21.56,6.88l-24.05,24.39q-31.33,23.64-31.56,29l-.69,7.81q-.13,3.23-13.27,20.95l-69.08,49.37q-29.29,23.22-56.18,47.78-8.56-10.86-12.4-12.17-3.37-1.25-29.43-28.12l-80.35-61.93Q734,172.67,719.8,168.39l-1.39-.46-1.6,1.63.36,3.36-1.6,1.62q-28.32-18-33.88-19.89-9.44-14.27-23.94-18.74-24-7.46-60.37-41.65-13.73-25.33-30.73-39.89-2.77-.93-4.38.7l-.81.81q-.06,7.07,6.07,12.54,23,52.33,39.34,57.33L603.65,129q-11.1-5.58-16.86-7.22-3.62,3.66-.67,8.14,24.35,18.35,30.22,29.2-5.45,7.38-4.09,11.6L636,191.56q17.13,23.3,26.07,25.93l31.07,27.07,31,29.7q34.47,45.93,85.85,90.59l-.75.23a97.68,97.68,0,0,1,10.41,12.16l-34.66,48.41a7.37,7.37,0,0,0-2,2.78q-.52,2.22-33.7,31.92l-31.75,40.88-38.72,38.91,11.58.61c-1.38,0-2.76,0-4.14,0a41.45,41.45,0,0,1-7.44-.65q-40.05,38.4-40.56,46.67l-.13.87,3.51-.56,5.51-2.6,3.51-.56Q633.44,608.09,633,611.6q-19.69,14.07-20.42,22.95-1.24,14.73-42,53.78-36.39,23.8-53,41c-.16,1.16.92,1.56,3.26,1.19l1.75-.28q12-5.14,18.36-11.51,77.64-47.1,78.42-57.06l7-1.13c-2.79,5.58-4.22,9.51-4.26,11.8a32.89,32.89,0,0,0,14.1-5.68q19.54-22.81,35.13-33,15-3.28,21.56-6.89L717,602.38q31.34-23.62,31.56-29l.69-7.81q.13-3.22,13.27-20.95l69.08-49.37q29.29-23.22,56.18-47.78,8.57,10.85,12.4,12.16,3.38,1.26,29.43,28.13l80.35,61.93q38.39,36.51,52.58,40.8l1.39.46,1.61-1.63-.37-3.36,1.6-1.63q28.32,18,33.88,19.9,9.44,14.26,23.94,18.74,24,7.44,60.38,41.65,13.72,25.33,30.72,39.89c1.85.62,3.31.38,4.38-.7l.81-.81q.06-7.07-6.07-12.54Q1191.74,638.11,1175.45,633.12Z" transform="translate(-118.24 -27.35)"/><path class="cls-2" d="M244.44,593.77H382.91v27.69H272.13v83.09H382.91v27.69H244.44Z" transform="translate(-118.24 -27.35)"/><path class="cls-2" d="M659.87,593.77V732.24H521.4V593.77ZM549.09,621.46v83.09h83.09V621.46Z" transform="translate(-118.24 -27.35)"/><path class="cls-2" d="M798.35,732.24V593.77H936.83V732.24h-27.7V621.46H881.44V732.24h-27.7V621.46H826V732.24Z" transform="translate(-118.24 -27.35)"/><path class="cls-2" d="M1075.31,732.24V593.77h138.47V732.24h-27.69V621.46H1158.4V732.24h-27.7V621.46H1103V732.24Z" transform="translate(-118.24 -27.35)"/><path class="cls-2" d="M1421.5,732.24V704.55h26.83l-26.83-69.24-37.65,96.93h-31.59l55.39-138.47h27.7l55.39,138.47Z" transform="translate(-118.24 -27.35)"/><path class="cls-2" d="M1629.22,732.24V593.77h27.69L1740,692V593.77h27.69V732.24H1740L1656.91,637v95.2Z" transform="translate(-118.24 -27.35)"/><path class="cls-2" d="M1906.17,732.24V593.77H2017l27.69,27.69v83.09L2017,732.24Zm27.69-27.69h69.24L2017,690.7V636.61l-13.86-15.15h-69.24Z" transform="translate(-118.24 -27.35)"/><polygon class="cls-2" points="0 195.16 70.81 195.16 70.81 312.21 1.45 381.58 0 195.16"/><polygon class="cls-2" points="85.26 268.86 85.26 195.16 274.56 195.16 274.56 268.86 85.26 268.86 85.26 268.86"/><polygon class="cls-2" points="192.19 316.55 192.19 393.14 106.94 393.14 72.25 427.82 72.25 704.89 0 704.89 0 397.47 83.09 314.38 192.19 316.55"/><polygon class="cls-2" points="300.58 195.16 300.58 504.41 376.44 428.54 376.44 268.86 463.87 268.86 501.44 306.43 501.44 435.05 378.61 435.05 311.41 502.24 530.99 502.24 569.36 467.14 569.36 260.72 514.69 202.39 300.58 195.16"/><polygon class="cls-2" points="385.83 280.42 458.09 280.42 387.28 351.23 385.83 280.42"/><polygon class="cls-2" points="1611.48 195.16 1611.48 504.41 1687.35 428.54 1687.35 268.86 1774.78 268.86 1812.35 306.43 1812.35 435.05 1689.52 435.05 1622.32 502.24 1880.27 502.24 1880.27 280.42 1802.23 202.39 1611.48 195.16"/><polygon class="cls-2" points="1696.74 280.42 1769 280.42 1698.19 351.23 1696.74 280.42"/><polygon class="cls-2" points="1180.39 197.82 1022.28 197.82 960.98 270.6 1111.48 270.6 1111.48 279.7 1055.08 336.11 1103.75 384.78 1180.39 308.13 1180.39 197.82"/><polygon class="cls-2" points="1111.48 504.41 1182.55 504.41 1182.55 327.35 1111.48 398.42 1111.48 504.41"/><rect class="cls-2" x="1196.09" y="197.82" width="84.61" height="72.78"/><polygon class="cls-2" points="2078.41 197.82 1910.33 197.82 1910.33 270.6 2009.49 270.6 2009.49 279.7 1953.09 336.11 2001.76 384.78 2078.41 308.13 2078.41 197.82"/><polygon class="cls-2" points="2009.49 704.89 2080.57 704.89 2080.57 327.35 2009.49 398.42 2009.49 704.89"/><rect class="cls-2" x="2094.1" y="197.82" width="84.61" height="72.78"/><path class="cls-1" d="M623.89,627.87a31.22,31.22,0,0,1-7.41-2.37c-2.34,3-3.75,5.77-4,8.2q-1.24,14.74-42,53.78-36.39,23.81-53,41c-.16,1.17.92,1.56,3.26,1.19l1.75-.28q12-5.14,18.36-11.5,77.64-47.11,78.42-57.07l7-1.13c-2.79,5.58-4.22,9.51-4.26,11.8a34.74,34.74,0,0,0,5.68-1.45,26.65,26.65,0,0,1,0-5.72C629.1,652,626.52,640.14,623.89,627.87Z" transform="translate(-118.24 -27.35)"/><path class="cls-1" d="M1261.47,27.49l-1.75.28q-12,5.13-18.36,11.5-77.64,47.12-78.42,57.07l-7,1.13c2.79-5.58,4.22-9.52,4.26-11.8a32.94,32.94,0,0,0-14.1,5.68q-19.55,22.82-35.13,33-15,3.27-21.56,6.88l-24.05,24.39q-31.33,23.64-31.56,29l-.69,7.81q-.13,3.22-13.27,20.95l-69.08,49.37Q921.46,286,894.56,310.56q-8.56-10.85-12.4-12.17-3.37-1.25-29.43-28.12l-80.35-61.93Q734,171.82,719.8,167.54l-1.39-.46-1.6,1.63.36,3.36-1.6,1.62q-28.32-18-33.88-19.89-9.44-14.27-23.94-18.74-24-7.45-60.37-41.65-13.73-25.34-30.73-39.89-2.77-.93-4.38.7l-.81.81q-.06,7.06,6.07,12.54,23,52.34,39.34,57.33l-3.22,3.25q-11.11-5.58-16.86-7.22-3.62,3.66-.67,8.14,24.35,18.35,30.22,29.2-5.45,7.38-4.09,11.6L636,190.71Q653.1,214,662,216.64l31.07,27.07,31,29.7q34.47,45.93,85.85,90.59c-.25.09-.5.16-.75.23a98.41,98.41,0,0,1,10.41,12.16L784.92,424.8a7.25,7.25,0,0,0-2,2.78q-.52,2.22-33.7,31.92l-31.75,40.88-38.72,38.91,11.58.62-4.14,0a41.37,41.37,0,0,1-7.44-.65c-11.27,10.81-20.08,19.75-26.62,27a28.45,28.45,0,0,1,5.81,5.51c13.67,1.82,26.83,11.57,29.12,25.61,1.56,9.62,3.73,19.14,5.57,28.69.08,0,.2-.08.28-.13L717,601.53q31.34-23.62,31.56-29l.69-7.81q.13-3.23,13.27-21l69.08-49.37q29.29-23.22,56.18-47.78,8.57,10.84,12.4,12.16,3.38,1.26,29.43,28.13l80.35,61.93q38.39,36.51,52.58,40.8l1.39.46,1.61-1.63-.37-3.36,1.6-1.62,4.69,3a25.57,25.57,0,0,1,2.55-1,34.56,34.56,0,0,1,8.31-3.19l9.06-.9a33.85,33.85,0,0,1,12.4,2.85,30.66,30.66,0,0,1,12.45-6c1.43-11.42,9.33-20.46,19.41-25.16-6.29-7.12-11.42-11.33-15.33-12.48l-31.08-27.07-31-29.7q-34.47-45.93-85.85-90.59c.25-.09.5-.16.75-.24a100.93,100.93,0,0,1-11.63-13.72c.9-1.17,1.89-2.32,2.83-3.48.74-.09,1.48-.22,2.22-.3l7.7-10.76c3.51-3.58,7.21-7.12,11.2-10.6-1.31.21-2.65.32-4,.51l15.9-22.21a7.13,7.13,0,0,0,2-2.78q.52-2.22,33.7-31.92l31.75-40.89,38.72-38.9-11.58-.62,4.14,0a41.29,41.29,0,0,1,7.44.65q40-38.41,40.56-46.67l.13-.87-3.51.56-5.51,2.6-3.51.56q17.16-24.13,17.66-27.64,19.68-14.07,20.41-22.95,1.24-14.75,42-53.78,36.39-23.8,53-41C1264.9,27.51,1263.81,27.12,1261.47,27.49Z" transform="translate(-118.24 -27.35)"/><path class="cls-1" d="M1183,636.88a71.3,71.3,0,0,1-2.85,10.75,46.29,46.29,0,0,1,5.41,17.29q13.48,24.5,30.07,38.73c1.85.62,3.31.38,4.38-.7l.81-.81q.06-7.07-6.07-12.54Q1196.87,648.91,1183,636.88Z" transform="translate(-118.24 -27.35)"/><path class="cls-1" d="M1196.19,629c-4.25-3.2-6.69-4.68-10.1-7.55-.07,4.22-1.72,6.86-2.23,11a84.13,84.13,0,0,0,11.66,4.69Q1199.14,633.5,1196.19,629Z" transform="translate(-118.24 -27.35)"/><path class="cls-2" d="M1546.64,407h-27.81v-.13H1502V227.12h-72.89V531.77H1502V475.69H1614Z" transform="translate(-118.24 -27.35)"/><path class="cls-2" d="M1668.29,427.56,1698,397.89V308.41l-81.31-81.3H1508.51V298h91.8l34.83,34.83v38.65L1599.58,407h-46.69l68.68,68.68L1634,488.07v43.69s65.65-.94,65.65,0V458.87Z" transform="translate(-118.24 -27.35)"/></svg>