<svg id="Capa_1" data-name="Capa 1" xmlns="http://www.w3.org/2000/svg" viewBox="0 0 2450 920"><defs><style>.cls-1{fill:#be1622;}.cls-2{fill:#fff;}</style></defs><g id="Foxtrot_Command_Blanco" data-name="Foxtrot Command Blanco"><path class="cls-1" d="M1192.85,713.32l3.22-3.25q11.1,5.56,16.86,7.22,3.61-3.66.67-8.14-24.35-18.35-30.22-29.2,5.44-7.38,4.08-11.6l-23.72-20.84q-17.12-23.29-26.06-25.93l-31.08-27.07-31-29.7q-34.46-45.93-85.84-90.59c.24-.09.49-.16.74-.24a99.53,99.53,0,0,1-11.62-13.72c.9-1.16,1.88-2.32,2.83-3.47.74-.1,1.47-.23,2.22-.31l7.7-10.76c3.5-3.58,7.2-7.12,11.2-10.59-1.32.2-2.66.31-4,.5l15.91-22.21a7.37,7.37,0,0,0,2-2.78q.53-2.22,33.69-31.92l31.76-40.89,38.71-38.9-11.57-.62c1.38,0,2.75,0,4.14,0a41.26,41.26,0,0,1,7.43.65q40-38.4,40.57-46.67l.12-.87-3.5.56-5.52,2.6-3.51.56q17.16-24.13,17.66-27.64,19.68-14.07,20.42-22.95,1.24-14.75,42-53.78,36.39-23.81,53-41c.16-1.17-.93-1.56-3.26-1.19l-1.76.28q-12,5.13-18.35,11.5-77.65,47.12-78.42,57.07l-7,1.13q4.18-8.37,4.25-11.8a32.9,32.9,0,0,0-14.09,5.68q-19.54,22.82-35.14,33-15,3.28-21.55,6.89l-24,24.38q-31.34,23.64-31.57,29l-.68,7.81q-.15,3.23-13.28,20.95l-69.07,49.37Q938.86,367.05,912,391.61q-8.57-10.85-12.39-12.16-3.37-1.26-29.43-28.13l-80.35-61.93q-38.38-36.52-52.58-40.8l-1.39-.46-1.61,1.63.37,3.36L733,254.74q-28.31-18-33.88-19.89-9.44-14.26-23.93-18.74-24-7.44-60.38-41.65-13.72-25.34-30.72-39.89c-1.85-.62-3.32-.38-4.39.7l-.8.81q-.06,7.06,6.06,12.54Q608,201,624.27,206l-3.22,3.25Q610,203.64,604.19,202q-3.62,3.66-.67,8.15,24.35,18.33,30.22,29.19-5.44,7.38-4.08,11.6l23.72,20.84q17.11,23.3,26.06,25.93l31.08,27.07,31,29.7q34.46,45.93,85.85,90.59l-.75.24A99.32,99.32,0,0,1,837,457.44l-34.67,48.41a7.37,7.37,0,0,0-2,2.78q-.52,2.22-33.69,31.92l-31.76,40.89-38.71,38.9,11.57.62c-1.38,0-2.75,0-4.13,0a41.29,41.29,0,0,1-7.44-.65q-40,38.4-40.57,46.67l-.12.87,3.51-.56,5.51-2.6,3.51-.56q-17.16,24.14-17.66,27.64-19.68,14.07-20.42,23-1.24,14.75-42,53.78-36.39,23.81-53,41c-.16,1.17.93,1.56,3.26,1.19l1.76-.28q12-5.13,18.35-11.5,77.65-47.12,78.43-57.07l7-1.13q-4.18,8.37-4.25,11.8a32.9,32.9,0,0,0,14.09-5.68q19.54-22.82,35.14-33,15-3.29,21.55-6.89l24-24.39q31.33-23.62,31.57-29l.68-7.81q.15-3.22,13.28-21L849,575.44q29.29-23.22,56.19-47.78,8.57,10.85,12.39,12.17Q920.93,541.07,947,568l80.35,61.93q38.39,36.52,52.58,40.8l1.39.46,1.61-1.63-.37-3.36,1.61-1.62q28.3,18,33.88,19.89,9.43,14.26,23.93,18.74,24,7.44,60.38,41.65,13.73,25.34,30.72,39.89c1.85.62,3.32.38,4.39-.7l.8-.81q.06-7.07-6.06-12.54Q1209.13,718.32,1192.85,713.32Z"/><path class="cls-2" d="M261.85,674H400.32v27.69H289.54v83.09H400.32v27.7H261.85Z"/><path class="cls-2" d="M677.28,674V812.45H538.8V674ZM566.5,701.66v83.09h83.09V701.66Z"/><path class="cls-2" d="M815.76,812.45V674H954.23V812.45H926.54V701.66h-27.7V812.45H871.15V701.66h-27.7V812.45Z"/><path class="cls-2" d="M1092.71,812.45V674h138.48V812.45H1203.5V701.66h-27.7V812.45h-27.7V701.66h-27.69V812.45Z"/><path class="cls-2" d="M1438.9,812.45v-27.7h26.84l-26.84-69.24-37.64,96.94h-31.59L1425.06,674h27.69l55.39,138.48Z"/><path class="cls-2" d="M1646.63,812.45V674h27.69l83.09,98.23V674h27.69V812.45h-27.69l-83.09-95.21v95.21Z"/><path class="cls-2" d="M1923.58,812.45V674h110.78l27.69,27.69v83.09l-27.69,27.7Zm27.69-27.7h69.24l13.85-13.85V716.81l-13.85-15.15h-69.24Z"/><polygon class="cls-2" points="135.65 302.72 206.45 302.72 206.45 419.77 137.09 489.13 135.65 302.72"/><polygon class="cls-2" points="220.91 376.42 220.91 302.72 410.21 302.72 410.21 376.42 220.91 376.42 220.91 376.42"/><polygon class="cls-2" points="327.84 424.1 327.84 500.69 242.58 500.69 207.9 535.37 207.9 812.45 135.65 812.45 135.65 505.03 218.74 421.94 327.84 424.1"/><polygon class="cls-2" points="436.22 302.72 436.22 611.96 512.09 536.1 512.09 376.42 599.51 376.42 637.09 413.99 637.09 542.6 514.25 542.6 447.06 609.8 666.64 609.8 705 574.69 705 368.28 650.33 309.94 436.22 302.72"/><polygon class="cls-2" points="521.48 387.98 593.74 387.98 522.93 458.79 521.48 387.98"/><polygon class="cls-2" points="1747.13 302.72 1747.13 611.96 1823 536.1 1823 376.42 1910.42 376.42 1948 413.99 1948 542.6 1825.16 542.6 1757.97 609.8 2015.91 609.8 2015.91 387.98 1937.88 309.94 1747.13 302.72"/><polygon class="cls-2" points="1832.39 387.98 1904.64 387.98 1833.84 458.79 1832.39 387.98"/><polygon class="cls-2" points="1316.04 305.38 1157.93 305.38 1096.63 378.16 1247.13 378.16 1247.13 387.26 1190.72 443.66 1239.39 492.33 1316.04 415.69 1316.04 305.38"/><polygon class="cls-2" points="1247.13 611.96 1318.2 611.96 1318.2 434.9 1247.13 505.98 1247.13 611.96"/><rect class="cls-2" x="1331.73" y="305.38" width="84.61" height="72.78"/><polygon class="cls-2" points="2214.05 305.38 2045.98 305.38 2045.98 378.16 2145.14 378.16 2145.14 387.26 2088.74 443.66 2137.41 492.33 2214.05 415.69 2214.05 305.38"/><polygon class="cls-2" points="2145.14 812.45 2216.21 812.45 2216.21 434.9 2145.14 505.98 2145.14 812.45"/><rect class="cls-2" x="2229.75" y="305.38" width="84.61" height="72.78"/><path class="cls-1" d="M641.29,708.07a31,31,0,0,1-7.4-2.37c-2.34,3-3.76,5.77-4,8.2q-1.24,14.75-42,53.78-36.39,23.8-53,41c-.16,1.17.93,1.56,3.26,1.19l1.76-.28q12-5.13,18.35-11.5Q636,751,636.78,741l7-1.13q-4.18,8.37-4.25,11.8a33.76,33.76,0,0,0,5.68-1.45,26.64,26.64,0,0,1-.05-5.72C646.51,732.16,643.93,720.34,641.29,708.07Z"/><path class="cls-1" d="M1278.88,107.69l-1.76.28q-12,5.13-18.35,11.5-77.65,47.11-78.43,57.07l-7,1.13q4.18-8.37,4.25-11.8a32.9,32.9,0,0,0-14.09,5.68q-19.54,22.81-35.14,33-15,3.28-21.55,6.89l-24,24.39q-31.34,23.63-31.57,29l-.68,7.81q-.15,3.22-13.28,20.95L968.15,343Q938.86,366.2,912,390.76q-8.57-10.85-12.39-12.16-3.37-1.26-29.43-28.13l-80.35-61.93q-38.38-36.53-52.58-40.8l-1.39-.46-1.61,1.63.37,3.36L733,253.89q-28.31-18-33.88-19.89-9.44-14.26-23.93-18.74-24-7.44-60.38-41.65-13.72-25.34-30.72-39.89c-1.85-.62-3.32-.38-4.39.7l-.8.81q-.06,7.07,6.06,12.54Q608,200.11,624.27,205.1l-3.22,3.25q-11.1-5.57-16.86-7.22-3.62,3.66-.67,8.15,24.35,18.33,30.22,29.2-5.43,7.36-4.08,11.59l23.72,20.84q17.11,23.29,26.06,25.93l31.08,27.07,31,29.7q34.46,45.93,85.85,90.59c-.25.09-.5.16-.75.24A99.32,99.32,0,0,1,837,456.59L802.32,505a7.37,7.37,0,0,0-2,2.78q-.52,2.22-33.69,31.92l-31.76,40.89-38.71,38.9,11.57.62c-1.38,0-2.75,0-4.13,0a41.29,41.29,0,0,1-7.44-.65c-11.28,10.81-20.09,19.75-26.63,27a27.94,27.94,0,0,1,5.81,5.51c13.68,1.82,26.83,11.57,29.12,25.61,1.57,9.62,3.74,19.14,5.58,28.69.08,0,.19-.08.27-.13l24-24.38q31.33-23.64,31.57-29l.69-7.81q.14-3.23,13.27-20.95L849,574.59q29.29-23.22,56.19-47.78,8.57,10.85,12.39,12.17,3.38,1.24,29.43,28.12L1027.33,629q38.39,36.53,52.59,40.8l1.38.46,1.61-1.63-.37-3.36,1.61-1.62,4.69,3a24.64,24.64,0,0,1,2.55-1,34.48,34.48,0,0,1,8.3-3.19l9.06-.89a33.69,33.69,0,0,1,12.41,2.84,30.57,30.57,0,0,1,12.44-6c1.43-11.42,9.33-20.46,19.41-25.16-6.28-7.12-11.41-11.32-15.33-12.48l-31.08-27.07-31-29.7Q1041.19,518,989.8,473.37c.24-.09.49-.16.74-.24a99.53,99.53,0,0,1-11.62-13.72c.9-1.16,1.88-2.32,2.83-3.47.74-.1,1.47-.23,2.22-.31l7.7-10.76c3.5-3.58,7.2-7.12,11.2-10.59-1.32.2-2.66.31-4,.5l15.91-22.21a7.37,7.37,0,0,0,2-2.78q.53-2.22,33.69-31.92L1082.24,337l38.71-38.9-11.57-.62c1.38,0,2.75,0,4.14,0a41.26,41.26,0,0,1,7.43.65q40-38.4,40.57-46.67l.12-.87-3.5.56-5.52,2.6-3.51.56q17.16-24.13,17.66-27.64,19.68-14.07,20.42-23,1.24-14.74,42-53.78,36.4-23.8,53-41C1282.3,107.71,1281.21,107.32,1278.88,107.69Z"/><path class="cls-1" d="M1200.44,717.08a71.33,71.33,0,0,1-2.86,10.75,46.68,46.68,0,0,1,5.42,17.29q13.47,24.5,30.06,38.73c1.86.62,3.32.38,4.39-.7l.8-.81q.06-7.07-6.06-12.54Q1214.26,729.11,1200.44,717.08Z"/><path class="cls-1" d="M1213.6,709.21c-4.26-3.2-6.69-4.68-10.1-7.55-.07,4.22-1.73,6.86-2.23,11a82.39,82.39,0,0,0,11.66,4.69Q1216.54,713.7,1213.6,709.21Z"/><path class="cls-2" d="M1564,487.21h-27.81v-.12h-16.87V307.32h-72.89V612h72.89V555.89h112.09Z"/><path class="cls-2" d="M1685.7,507.76l29.67-29.67V388.61l-81.3-81.3H1525.91v70.84h91.8L1652.54,413v38.66L1617,487.21h-46.69L1639,555.89l12.39,12.38V612S1717,611,1717,612V539.07Z"/></g></svg>



